PathFileType	4	(X/Y/Z)	markers
DataRate	CameraRate	NumFrames	NumMarkers	Units	OrigDataRate	OrigDataStartFrame	OrigNumFrames
200	200	4	39	mm	200	64	252
Frame#	Time	RASI			LASI			RPSI			LPSI			RTH1			RTH2			RTH3			RTH4			RLFC			RTB1			RTB2			RTB3			RTB4			RLMAL			RCAL			RTOE			RMT5			LTH1			LTH2			LTH3			LTH4			LLFC			LTB1			LTB2			LTB3			LTB4			LLMAL			LCAL			LTOE			LMT5			C7			T10			CLAV			RACR			LACR			RLEL			RFAradius			LLEL			LFAradius		
		X1	Y1	Z1	X2	Y2	Z2	X3	Y3	Z3	X4	Y4	Z4	X5	Y5	Z5	X6	Y6	Z6	X7	Y7	Z7	X8	Y8	Z8	X9	Y9	Z9	X10	Y10	Z10	X11	Y11	Z11	X12	Y12	Z12	X13	Y13	Z13	X14	Y14	Z14	X15	Y15	Z15	X16	Y16	Z16	X17	Y17	Z17	X18	Y18	Z18	X19	Y19	Z19	X20	Y20	Z20	X21	Y21	Z21	X22	Y22	Z22	X23	Y23	Z23	X24	Y24	Z24	X25	Y25	Z25	X26	Y26	Z26	X27	Y27	Z27	X28	Y28	Z28	X29	Y29	Z29	X30	Y30	Z30	X31	Y31	Z31	X32	Y32	Z32	X33	Y33	Z33	X34	Y34	Z34	X35	Y35	Z35	X36	Y36	Z36	X37	Y37	Z37	X38	Y38	Z38	X39	Y39	Z39
64	0.315000	781.977108	1033.048742	725.685834	792.525144	1008.889811	492.746566	623.754345	1065.528130	653.167563	628.228101	1062.972314	557.256191	826.417489	796.535663	777.520482	879.538395	820.135986	748.266788	919.460956	726.454112	738.211759	880.995081	704.787229	761.930561	930.728387	587.500390	744.046140	908.072631	461.372131	764.625448	953.690085	463.947747	743.184268	958.922739	358.691128	722.496556	901.072325	359.689404	750.633134	905.409850	154.198981	710.650418	854.748076	109.820902	650.260174	1079.127631	141.578737	638.635588	1039.220001	119.911587	734.136163	692.369994	745.508912	443.756724	730.552597	738.077942	474.765754	699.201724	643.496868	502.491788	648.174805	648.097659	462.348362	564.429754	544.175366	472.844072	494.978065	468.580034	448.161763	523.700169	439.513195	474.334032	453.883349	365.822861	489.113456	410.652078	403.214830	453.586374	257.426625	239.297012	493.737826	180.726838	278.611691	553.221842	308.067713	94.679615	583.943959	268.010728	110.335376	487.269001	690.705925	1558.111704	583.945468	612.705004	1361.676022	566.254414	784.146457	1475.936913	637.324593	682.420800	1532.973555	753.353213	781.439337	1526.498400	437.144476	440.608701	1314.478883	804.633364	584.143914	1098.398777	837.820716	775.003710	1190.078833	339.838485	952.598689	1272.494166	496.991287
65	0.320000	798.565229	1034.126904	725.789709	809.321316	1010.517175	492.832730	640.420910	1067.929212	653.645567	644.870867	1065.562856	557.760315	839.676683	795.197548	779.132841	893.412320	817.445823	749.547861	931.388884	723.226733	740.010245	892.091676	702.560810	763.453806	941.718569	584.297035	744.417325	922.496545	458.879858	764.678082	968.018892	462.640481	743.135381	976.215302	357.785238	722.347927	919.165390	357.388562	752.238658	931.286822	151.898586	711.363694	881.793607	105.362455	650.608474	1104.584955	145.857596	637.451096	1066.527235	122.410630	733.054914	708.534738	747.075412	445.167565	746.078137	740.076336	476.941397	714.557811	645.911037	503.465140	663.291466	649.868490	463.686397	579.435180	546.751816	473.545753	508.979241	471.610177	449.227174	537.341606	441.918699	475.742592	466.659251	369.462634	488.650581	423.864851	406.337282	453.255192	268.868357	245.319185	491.812550	192.763736	287.556778	551.180458	312.709073	98.830040	583.305631	274.028002	116.377327	486.334056	706.021357	1559.570060	584.789670	628.815270	1363.020111	566.352068	799.058387	1477.791389	638.479748	697.035036	1534.607553	753.574277	797.672273	1528.874401	438.416848	454.592910	1317.044038	803.055788	597.845503	1101.151424	837.723487	792.435793	1192.959585	340.508629	967.974652	1275.603004	499.458255
66	0.325000	815.343937	1034.626372	725.806417	825.578512	1011.912296	493.282008	657.478311	1069.720196	654.138001	661.831984	1067.995462	557.663642	854.144784	794.148551	779.272610	907.415295	814.868948	751.203117	943.753722	719.791470	741.696305	903.943734	699.969786	764.922583	953.300243	581.139840	744.819754	937.060761	457.387347	766.429991	982.332172	462.232089	743.948407	993.476494	357.242281	722.548741	936.363233	355.988150	753.298687	956.370566	149.954420	711.792803	908.005894	102.113755	651.613622	1128.850167	150.442749	636.424358	1092.797457	124.650641	731.890882	725.317654	747.866257	446.992004	762.329089	741.006190	479.038532	729.630288	647.313967	506.238628	679.816551	651.075972	465.005224	595.518531	547.957659	474.796008	523.978461	473.981718	450.399174	552.064078	444.295211	475.866448	480.270404	372.542271	488.765359	437.789024	409.888503	453.309892	278.979876	251.753376	490.970066	205.555025	297.269677	548.856705	318.547252	105.008476	583.225390	280.750196	122.419768	485.848780	721.315194	1560.704910	585.633307	645.054245	1364.390508	566.330347	814.751128	1479.402333	639.492183	711.531218	1536.026788	754.353266	813.275550	1530.715799	439.829566	468.691856	1318.978544	801.608472	612.249958	1102.978294	837.767642	809.191628	1195.246528	341.161748	982.874890	1277.947358	502.267219
67	0.330000	831.983939	1034.825044	726.295057	841.900147	1012.660431	493.924690	674.152364	1071.361869	654.765499	678.476078	1070.143396	558.012378	867.632879	792.711036	781.480169	921.812468	812.019424	751.447111	955.902372	715.864811	742.968801	915.892229	696.896722	766.339273	964.688210	578.084357	744.939983	950.427762	454.899746	765.111751	995.973614	461.530068	745.188264	1010.568546	357.152773	723.598744	953.034815	354.140084	753.750447	980.267038	148.907236	712.499167	932.654990	99.048534	652.256305	1152.088941	154.899163	635.361740	1118.012340	126.764511	730.819391	742.918739	748.995396	447.293483	778.152568	741.757626	482.409224	746.239661	648.654282	508.642303	697.088915	651.675079	467.033281	612.096228	548.569122	475.350988	539.362795	476.309282	450.588935	567.109069	445.682987	477.131817	493.977549	375.180445	489.209956	452.848451	413.204792	453.184841	290.093430	258.086862	489.707876	217.531130	306.556064	546.877111	323.575425	110.338046	583.113421	287.816404	128.471750	485.376785	736.708027	1562.149861	586.360642	661.539965	1365.116520	566.072876	829.762073	1481.279106	640.661948	726.663508	1536.291641	755.252946	829.217555	1532.616520	440.683105	483.116554	1320.424279	800.559477	626.742086	1104.245299	837.937491	826.461689	1196.923856	341.663616	997.782497	1280.314963	505.012037
